# xmcd CD database file
#
# Track frame offsets:
#	150
#	13029
#	36929
#	53809
#	74509
#	98466
#	115107
#	133171
#	151867
#	169459
#	177962
#	194969
#	217196
#
# Disc length: 3307 seconds
#
# Revision: 0
# Processed by: cddbd v1.5.1PL0 Copyright (c) Steve Scherf et al.
# Submitted via: CD2WAV32(EN) R3.19
#
DISCID=c10ce90d
DTITLE=yuzu - ONE
DYEAR=1900
DGENRE=
TTITLE0=wadati
TTITLE1=ONE
TTITLE2=syumi no haba
TTITLE3=sakuragi chou
TTITLE4=hakuchou
TTITLE5=uso ppati
TTITLE6=tumiki game
TTITLE7=inoti haterumade
TTITLE8=hokousya yuusen
TTITLE9=natumaturi
TTITLE10=keikoutou no saki
TTITLE11=yume no tizu
TTITLE12=eikou no kakehashi
EXTD=
EXTT0=
EXTT1=
EXTT2=
EXTT3=
EXTT4=
EXTT5=
EXTT6=
EXTT7=
EXTT8=
EXTT9=
EXTT10=
EXTT11=
EXTT12=
PLAYORDER=
